<svg width="750" height="497" viewBox="0 0 750 497" fill="none" xmlns="http://www.w3.org/2000/svg">
<g clip-path="url(#clip0_147_3)">
<path d="M750.33 -2.71999H0.329987V497.28H750.33V-2.71999Z" fill="#007B78"/>
<g opacity="0.5">
<path opacity="0.5" d="M585.12 -1.43997L520.64 63.04" stroke="white" stroke-width="2.1221" stroke-miterlimit="10"/>
<path opacity="0.5" d="M580.93 -5.62997L516.45 58.85" stroke="white" stroke-width="2.1221" stroke-miterlimit="10"/>
<path opacity="0.5" d="M576.74 -9.81998L512.26 54.66" stroke="white" stroke-width="2.1221" stroke-miterlimit="10"/>
<path opacity="0.5" d="M572.55 -14.01L508.07 50.47" stroke="white" stroke-width="2.1221" stroke-miterlimit="10"/>
<path opacity="0.5" d="M568.36 -18.2L503.88 46.28" stroke="white" stroke-width="2.1221" stroke-miterlimit="10"/>
<path opacity="0.5" d="M564.17 -22.39L499.69 42.09" stroke="white" stroke-width="2.1221" stroke-miterlimit="10"/>
<path opacity="0.5" d="M559.98 -26.58L495.5 37.9" stroke="white" stroke-width="2.1221" stroke-miterlimit="10"/>
<path opacity="0.5" d="M555.79 -30.77L491.31 33.71" stroke="white" stroke-width="2.1221" stroke-miterlimit="10"/>
<path opacity="0.5" d="M551.6 -34.96L487.12 29.52" stroke="white" stroke-width="2.1221" stroke-miterlimit="10"/>
<path opacity="0.5" d="M547.41 -39.15L482.93 25.33" stroke="white" stroke-width="2.1221" stroke-miterlimit="10"/>
<path opacity="0.5" d="M543.22 -43.34L478.74 21.14" stroke="white" stroke-width="2.1221" stroke-miterlimit="10"/>
<path opacity="0.5" d="M539.03 -47.52L474.56 16.95" stroke="white" stroke-width="2.1221" stroke-miterlimit="10"/>
<path opacity="0.5" d="M534.85 -51.71L470.37 12.77" stroke="white" stroke-width="2.1221" stroke-miterlimit="10"/>
<path opacity="0.5" d="M530.66 -55.9L466.18 8.58004" stroke="white" stroke-width="2.1221" stroke-miterlimit="10"/>
<path opacity="0.5" d="M526.47 -60.09L461.99 4.39003" stroke="white" stroke-width="2.1221" stroke-miterlimit="10"/>
<path opacity="0.5" d="M522.28 -64.28L457.8 0.200027" stroke="white" stroke-width="2.1221" stroke-miterlimit="10"/>
</g>
<g opacity="0.5">
<path opacity="0.5" d="M433.51 495.39L369.03 559.87" stroke="white" stroke-width="2.1221" stroke-miterlimit="10"/>
<path opacity="0.5" d="M429.32 491.2L364.84 555.68" stroke="white" stroke-width="2.1221" stroke-miterlimit="10"/>
<path opacity="0.5" d="M425.13 487.01L360.65 551.49" stroke="white" stroke-width="2.1221" stroke-miterlimit="10"/>
<path opacity="0.5" d="M420.94 482.82L356.46 547.3" stroke="white" stroke-width="2.1221" stroke-miterlimit="10"/>
<path opacity="0.5" d="M416.75 478.63L352.27 543.11" stroke="white" stroke-width="2.1221" stroke-miterlimit="10"/>
<path opacity="0.5" d="M412.56 474.44L348.08 538.92" stroke="white" stroke-width="2.1221" stroke-miterlimit="10"/>
<path opacity="0.5" d="M408.37 470.25L343.89 534.73" stroke="white" stroke-width="2.1221" stroke-miterlimit="10"/>
<path opacity="0.5" d="M404.18 466.06L339.7 530.54" stroke="white" stroke-width="2.1221" stroke-miterlimit="10"/>
<path opacity="0.5" d="M399.99 461.87L335.51 526.35" stroke="white" stroke-width="2.1221" stroke-miterlimit="10"/>
<path opacity="0.5" d="M395.8 457.68L331.32 522.16" stroke="white" stroke-width="2.1221" stroke-miterlimit="10"/>
<path opacity="0.5" d="M391.61 453.49L327.13 517.97" stroke="white" stroke-width="2.1221" stroke-miterlimit="10"/>
<path opacity="0.5" d="M387.42 449.3L322.95 513.78" stroke="white" stroke-width="2.1221" stroke-miterlimit="10"/>
<path opacity="0.5" d="M383.24 445.12L318.76 509.59" stroke="white" stroke-width="2.1221" stroke-miterlimit="10"/>
<path opacity="0.5" d="M379.05 440.93L314.57 505.4" stroke="white" stroke-width="2.1221" stroke-miterlimit="10"/>
<path opacity="0.5" d="M374.86 436.74L310.38 501.22" stroke="white" stroke-width="2.1221" stroke-miterlimit="10"/>
</g>
<path opacity="0.5" d="M80.03 340.11C94.94 355.02 94.94 379.2 80.03 394.12L-86.13 560.28C-101.04 575.19 -125.22 575.19 -140.14 560.28C-155.05 545.37 -155.05 521.19 -140.14 506.27L26.02 340.11C40.94 325.2 65.12 325.2 80.03 340.11Z" fill="url(#paint0_linear_147_3)"/>
<path opacity="0.5" d="M254.25 324.91C270.46 341.12 270.46 367.39 254.25 383.6L82.96 554.88C66.75 571.09 40.48 571.09 24.27 554.88C8.05999 538.67 8.05999 512.4 24.27 496.19L195.55 324.91C211.76 308.7 238.04 308.7 254.25 324.91Z" fill="url(#paint1_linear_147_3)"/>
<path opacity="0.5" d="M248.02 437.67C255.74 445.39 255.74 457.9 248.02 465.61L170.38 543.25C162.66 550.97 150.15 550.97 142.44 543.25C134.72 535.53 134.72 523.02 142.44 515.31L220.08 437.67C227.8 429.96 240.31 429.96 248.02 437.67Z" fill="url(#paint2_linear_147_3)"/>
<path opacity="0.5" d="M184.37 396.12C194.69 406.45 194.69 423.19 184.37 433.51L30.08 587.8C19.75 598.13 3.00998 598.13 -7.31002 587.8C-17.63 577.47 -17.63 560.73 -7.31002 550.41L146.98 396.12C157.3 385.79 174.04 385.79 184.37 396.12Z" fill="url(#paint3_linear_147_3)"/>
<path opacity="0.5" d="M584.34 230.77C568.13 214.56 568.13 188.29 584.34 172.08L755.62 0.800016C771.83 -15.41 798.1 -15.41 814.31 0.800016C830.52 17.01 830.52 43.28 814.31 59.49L643.03 230.77C626.82 246.97 600.55 246.97 584.34 230.77Z" fill="url(#paint4_linear_147_3)"/>
<path opacity="0.5" d="M581.17 88.32C573.45 80.6 573.45 68.09 581.17 60.38L658.81 -17.26C666.53 -24.98 679.04 -24.98 686.75 -17.26C694.47 -9.53999 694.47 2.97 686.75 10.68L609.11 88.32C601.4 96.03 588.89 96.03 581.17 88.32Z" fill="url(#paint5_linear_147_3)"/>
<path opacity="0.5" d="M707.58 231.62C699.86 223.9 699.86 211.39 707.58 203.68L785.22 126.04C792.94 118.32 805.45 118.32 813.16 126.04C820.88 133.76 820.88 146.27 813.16 153.98L735.52 231.62C727.8 239.34 715.29 239.34 707.58 231.62Z" fill="url(#paint6_linear_147_3)"/>
<g opacity="0.49">
<g opacity="0.49">
<path opacity="0.49" d="M392.86 118.83V125.97" stroke="white" stroke-width="2" stroke-miterlimit="10" stroke-linecap="round" stroke-linejoin="round"/>
<path opacity="0.49" d="M396.43 122.4H389.3" stroke="white" stroke-width="2" stroke-miterlimit="10" stroke-linecap="round" stroke-linejoin="round"/>
</g>
<g opacity="0.49">
<path opacity="0.49" d="M692.9 357.36V364.49" stroke="white" stroke-width="2" stroke-miterlimit="10" stroke-linecap="round" stroke-linejoin="round"/>
<path opacity="0.49" d="M696.47 360.92H689.34" stroke="white" stroke-width="2" stroke-miterlimit="10" stroke-linecap="round" stroke-linejoin="round"/>
</g>
<g opacity="0.49">
<path opacity="0.49" d="M189.61 292.76V299.89" stroke="white" stroke-width="2" stroke-miterlimit="10" stroke-linecap="round" stroke-linejoin="round"/>
<path opacity="0.49" d="M193.18 296.32H186.05" stroke="white" stroke-width="2" stroke-miterlimit="10" stroke-linecap="round" stroke-linejoin="round"/>
</g>
<g opacity="0.49">
<g opacity="0.49">
<path opacity="0.49" d="M554.25 442.64V449.77" stroke="white" stroke-width="2" stroke-miterlimit="10" stroke-linecap="round" stroke-linejoin="round"/>
<path opacity="0.49" d="M557.81 446.2H550.68" stroke="white" stroke-width="2" stroke-miterlimit="10" stroke-linecap="round" stroke-linejoin="round"/>
</g>
<g opacity="0.49">
<path opacity="0.49" d="M532.69 442.64V449.77" stroke="white" stroke-width="2" stroke-miterlimit="10" stroke-linecap="round" stroke-linejoin="round"/>
<path opacity="0.49" d="M536.25 446.2H529.12" stroke="white" stroke-width="2" stroke-miterlimit="10" stroke-linecap="round" stroke-linejoin="round"/>
</g>
<g opacity="0.49">
<path opacity="0.49" d="M511.13 442.64V449.77" stroke="white" stroke-width="2" stroke-miterlimit="10" stroke-linecap="round" stroke-linejoin="round"/>
<path opacity="0.49" d="M514.69 446.2H507.56" stroke="white" stroke-width="2" stroke-miterlimit="10" stroke-linecap="round" stroke-linejoin="round"/>
</g>
</g>
<g opacity="0.49">
<g opacity="0.49">
<path opacity="0.49" d="M71.24 123.64V130.77" stroke="white" stroke-width="2" stroke-miterlimit="10" stroke-linecap="round" stroke-linejoin="round"/>
<path opacity="0.49" d="M74.8 127.21H67.67" stroke="white" stroke-width="2" stroke-miterlimit="10" stroke-linecap="round" stroke-linejoin="round"/>
</g>
<g opacity="0.49">
<path opacity="0.49" d="M49.68 123.64V130.77" stroke="white" stroke-width="2" stroke-miterlimit="10" stroke-linecap="round" stroke-linejoin="round"/>
<path opacity="0.49" d="M53.25 127.21H46.11" stroke="white" stroke-width="2" stroke-miterlimit="10" stroke-linecap="round" stroke-linejoin="round"/>
</g>
<g opacity="0.49">
<path opacity="0.49" d="M28.12 123.64V130.77" stroke="white" stroke-width="2" stroke-miterlimit="10" stroke-linecap="round" stroke-linejoin="round"/>
<path opacity="0.49" d="M31.69 127.21H24.56" stroke="white" stroke-width="2" stroke-miterlimit="10" stroke-linecap="round" stroke-linejoin="round"/>
</g>
</g>
</g>
</g>
<defs>
<linearGradient id="paint0_linear_147_3" x1="80.035" y1="340.113" x2="-140.134" y2="560.282" gradientUnits="userSpaceOnUse">
<stop stop-color="white"/>
<stop offset="1" stop-opacity="0"/>
</linearGradient>
<linearGradient id="paint1_linear_147_3" x1="254.245" y1="324.907" x2="24.2736" y2="554.879" gradientUnits="userSpaceOnUse">
<stop stop-color="white"/>
<stop offset="1" stop-opacity="0"/>
</linearGradient>
<linearGradient id="paint2_linear_147_3" x1="248.023" y1="437.673" x2="142.437" y2="543.259" gradientUnits="userSpaceOnUse">
<stop stop-color="white"/>
<stop offset="1" stop-opacity="0"/>
</linearGradient>
<linearGradient id="paint3_linear_147_3" x1="197.092" y1="383.398" x2="110.871" y2="469.618" gradientUnits="userSpaceOnUse">
<stop stop-color="white"/>
<stop offset="1" stop-opacity="0"/>
</linearGradient>
<linearGradient id="paint4_linear_147_3" x1="584.339" y1="230.765" x2="814.311" y2="0.793658" gradientUnits="userSpaceOnUse">
<stop stop-color="white"/>
<stop offset="1" stop-opacity="0"/>
</linearGradient>
<linearGradient id="paint5_linear_147_3" x1="581.17" y1="88.3152" x2="686.756" y2="-17.2708" gradientUnits="userSpaceOnUse">
<stop stop-color="white"/>
<stop offset="1" stop-opacity="0"/>
</linearGradient>
<linearGradient id="paint6_linear_147_3" x1="707.575" y1="231.619" x2="813.161" y2="126.033" gradientUnits="userSpaceOnUse">
<stop stop-color="white"/>
<stop offset="1" stop-opacity="0"/>
</linearGradient>
<clipPath id="clip0_147_3">
<rect width="750" height="497" fill="white"/>
</clipPath>
</defs>
</svg>
