<svg width="750" height="100" viewBox="0 0 750 100" fill="none" xmlns="http://www.w3.org/2000/svg">
<g clip-path="url(#clip0_153_2)">
<path d="M750.33 -201.72H0.329987V298.28H750.33V-201.72Z" fill="#004356"/>
<g opacity="0.5">
<path opacity="0.5" d="M626.91 69.48C627.893 69.48 628.69 68.6831 628.69 67.7C628.69 66.7169 627.893 65.92 626.91 65.92C625.927 65.92 625.13 66.7169 625.13 67.7C625.13 68.6831 625.927 69.48 626.91 69.48Z" fill="white"/>
<path opacity="0.5" d="M626.91 84.79C627.893 84.79 628.69 83.9931 628.69 83.01C628.69 82.0269 627.893 81.23 626.91 81.23C625.927 81.23 625.13 82.0269 625.13 83.01C625.13 83.9931 625.927 84.79 626.91 84.79Z" fill="white"/>
<path opacity="0.5" d="M626.91 100.09C627.893 100.09 628.69 99.2931 628.69 98.31C628.69 97.3269 627.893 96.53 626.91 96.53C625.927 96.53 625.13 97.3269 625.13 98.31C625.13 99.2931 625.927 100.09 626.91 100.09Z" fill="white"/>
<path opacity="0.5" d="M611.61 69.48C610.63 69.48 609.83 68.68 609.83 67.7C609.83 66.72 610.63 65.92 611.61 65.92C612.59 65.92 613.39 66.72 613.39 67.7C613.38 68.68 612.59 69.48 611.61 69.48Z" fill="white"/>
<path opacity="0.5" d="M611.61 84.78C610.63 84.78 609.83 83.98 609.83 83C609.83 82.02 610.63 81.22 611.61 81.22C612.59 81.22 613.39 82.02 613.39 83C613.38 83.99 612.59 84.78 611.61 84.78Z" fill="white"/>
<path opacity="0.5" d="M611.61 100.09C610.63 100.09 609.83 99.29 609.83 98.31C609.83 97.33 610.63 96.53 611.61 96.53C612.59 96.53 613.39 97.33 613.39 98.31C613.38 99.29 612.59 100.09 611.61 100.09Z" fill="white"/>
<path opacity="0.5" d="M596.3 69.48C597.283 69.48 598.08 68.6831 598.08 67.7C598.08 66.7169 597.283 65.92 596.3 65.92C595.317 65.92 594.52 66.7169 594.52 67.7C594.52 68.6831 595.317 69.48 596.3 69.48Z" fill="white"/>
<path opacity="0.5" d="M596.3 84.79C597.283 84.79 598.08 83.9931 598.08 83.01C598.08 82.0269 597.283 81.23 596.3 81.23C595.317 81.23 594.52 82.0269 594.52 83.01C594.52 83.9931 595.317 84.79 596.3 84.79Z" fill="white"/>
<path opacity="0.5" d="M596.3 100.09C597.283 100.09 598.08 99.2931 598.08 98.31C598.08 97.3269 597.283 96.53 596.3 96.53C595.317 96.53 594.52 97.3269 594.52 98.31C594.52 99.2931 595.317 100.09 596.3 100.09Z" fill="white"/>
<path opacity="0.5" d="M580.99 69.48C581.973 69.48 582.77 68.6831 582.77 67.7C582.77 66.7169 581.973 65.92 580.99 65.92C580.007 65.92 579.21 66.7169 579.21 67.7C579.21 68.6831 580.007 69.48 580.99 69.48Z" fill="white"/>
<path opacity="0.5" d="M580.99 84.79C581.973 84.79 582.77 83.9931 582.77 83.01C582.77 82.0269 581.973 81.23 580.99 81.23C580.007 81.23 579.21 82.0269 579.21 83.01C579.21 83.9931 580.007 84.79 580.99 84.79Z" fill="white"/>
<path opacity="0.5" d="M580.99 100.09C581.973 100.09 582.77 99.2931 582.77 98.31C582.77 97.3269 581.973 96.53 580.99 96.53C580.007 96.53 579.21 97.3269 579.21 98.31C579.21 99.2931 580.007 100.09 580.99 100.09Z" fill="white"/>
<path opacity="0.5" d="M565.69 69.48C566.673 69.48 567.47 68.6831 567.47 67.7C567.47 66.7169 566.673 65.92 565.69 65.92C564.707 65.92 563.91 66.7169 563.91 67.7C563.91 68.6831 564.707 69.48 565.69 69.48Z" fill="white"/>
<path opacity="0.5" d="M565.69 84.79C566.673 84.79 567.47 83.9931 567.47 83.01C567.47 82.0269 566.673 81.23 565.69 81.23C564.707 81.23 563.91 82.0269 563.91 83.01C563.91 83.9931 564.707 84.79 565.69 84.79Z" fill="white"/>
<path opacity="0.5" d="M565.69 100.09C566.673 100.09 567.47 99.2931 567.47 98.31C567.47 97.3269 566.673 96.53 565.69 96.53C564.707 96.53 563.91 97.3269 563.91 98.31C563.91 99.2931 564.707 100.09 565.69 100.09Z" fill="white"/>
<path opacity="0.5" d="M550.38 69.48C551.363 69.48 552.16 68.6831 552.16 67.7C552.16 66.7169 551.363 65.92 550.38 65.92C549.397 65.92 548.6 66.7169 548.6 67.7C548.6 68.6831 549.397 69.48 550.38 69.48Z" fill="white"/>
<path opacity="0.5" d="M550.38 84.79C551.363 84.79 552.16 83.9931 552.16 83.01C552.16 82.0269 551.363 81.23 550.38 81.23C549.397 81.23 548.6 82.0269 548.6 83.01C548.6 83.9931 549.397 84.79 550.38 84.79Z" fill="white"/>
<path opacity="0.5" d="M550.38 100.09C551.363 100.09 552.16 99.2931 552.16 98.31C552.16 97.3269 551.363 96.53 550.38 96.53C549.397 96.53 548.6 97.3269 548.6 98.31C548.6 99.2931 549.397 100.09 550.38 100.09Z" fill="white"/>
</g>
<g opacity="0.5">
<path opacity="0.5" d="M431.52 9.15001C431.52 10.13 430.72 10.93 429.74 10.93C428.76 10.93 427.96 10.13 427.96 9.15001C427.96 8.17001 428.76 7.37001 429.74 7.37001C430.72 7.37001 431.52 8.17001 431.52 9.15001Z" fill="white"/>
<path opacity="0.5" d="M446.83 9.15001C446.83 10.13 446.03 10.93 445.05 10.93C444.07 10.93 443.27 10.13 443.27 9.15001C443.27 8.17001 444.07 7.37001 445.05 7.37001C446.03 7.38001 446.83 8.17001 446.83 9.15001Z" fill="white"/>
<path opacity="0.5" d="M462.13 9.15001C462.13 10.13 461.33 10.93 460.35 10.93C459.37 10.93 458.57 10.13 458.57 9.15001C458.57 8.17001 459.37 7.37001 460.35 7.37001C461.33 7.37001 462.13 8.17001 462.13 9.15001Z" fill="white"/>
</g>
<g opacity="0.5">
<path opacity="0.5" d="M288.62 54.53C288.62 55.51 287.82 56.31 286.84 56.31C285.86 56.31 285.06 55.51 285.06 54.53C285.06 53.55 285.86 52.75 286.84 52.75C287.83 52.75 288.62 53.54 288.62 54.53Z" fill="white"/>
<path opacity="0.5" d="M302.15 56.31C303.133 56.31 303.93 55.5131 303.93 54.53C303.93 53.5469 303.133 52.75 302.15 52.75C301.167 52.75 300.37 53.5469 300.37 54.53C300.37 55.5131 301.167 56.31 302.15 56.31Z" fill="white"/>
<path opacity="0.5" d="M317.45 56.31C318.433 56.31 319.23 55.5131 319.23 54.53C319.23 53.5469 318.433 52.75 317.45 52.75C316.467 52.75 315.67 53.5469 315.67 54.53C315.67 55.5131 316.467 56.31 317.45 56.31Z" fill="white"/>
<path opacity="0.5" d="M288.62 69.83C288.62 70.81 287.82 71.61 286.84 71.61C285.86 71.61 285.06 70.81 285.06 69.83C285.06 68.85 285.86 68.05 286.84 68.05C287.83 68.05 288.62 68.85 288.62 69.83Z" fill="white"/>
<path opacity="0.5" d="M302.15 71.61C303.133 71.61 303.93 70.8131 303.93 69.83C303.93 68.8469 303.133 68.05 302.15 68.05C301.167 68.05 300.37 68.8469 300.37 69.83C300.37 70.8131 301.167 71.61 302.15 71.61Z" fill="white"/>
<path opacity="0.5" d="M317.45 71.61C318.433 71.61 319.23 70.8131 319.23 69.83C319.23 68.8469 318.433 68.05 317.45 68.05C316.467 68.05 315.67 68.8469 315.67 69.83C315.67 70.8131 316.467 71.61 317.45 71.61Z" fill="white"/>
<path opacity="0.5" d="M288.62 85.14C288.62 86.12 287.82 86.92 286.84 86.92C285.86 86.92 285.06 86.12 285.06 85.14C285.06 84.16 285.86 83.36 286.84 83.36C287.83 83.36 288.62 84.16 288.62 85.14Z" fill="white"/>
<path opacity="0.5" d="M303.93 85.14C303.93 86.12 303.13 86.92 302.15 86.92C301.17 86.92 300.37 86.12 300.37 85.14C300.37 84.16 301.17 83.36 302.15 83.36C303.13 83.36 303.93 84.16 303.93 85.14Z" fill="white"/>
<path opacity="0.5" d="M319.23 85.14C319.23 86.12 318.43 86.92 317.45 86.92C316.47 86.92 315.67 86.12 315.67 85.14C315.67 84.16 316.47 83.36 317.45 83.36C318.44 83.36 319.23 84.16 319.23 85.14Z" fill="white"/>
</g>
<g opacity="0.5">
<path opacity="0.5" d="M715.12 -10.44L650.64 54.04" stroke="white" stroke-width="2.1221" stroke-miterlimit="10"/>
<path opacity="0.5" d="M710.93 -14.63L646.45 49.85" stroke="white" stroke-width="2.1221" stroke-miterlimit="10"/>
<path opacity="0.5" d="M706.74 -18.82L642.26 45.66" stroke="white" stroke-width="2.1221" stroke-miterlimit="10"/>
<path opacity="0.5" d="M702.55 -23.01L638.07 41.47" stroke="white" stroke-width="2.1221" stroke-miterlimit="10"/>
<path opacity="0.5" d="M698.36 -27.2L633.88 37.28" stroke="white" stroke-width="2.1221" stroke-miterlimit="10"/>
<path opacity="0.5" d="M694.17 -31.39L629.69 33.09" stroke="white" stroke-width="2.1221" stroke-miterlimit="10"/>
<path opacity="0.5" d="M689.98 -35.58L625.5 28.9" stroke="white" stroke-width="2.1221" stroke-miterlimit="10"/>
<path opacity="0.5" d="M685.79 -39.77L621.31 24.71" stroke="white" stroke-width="2.1221" stroke-miterlimit="10"/>
<path opacity="0.5" d="M681.6 -43.96L617.12 20.52" stroke="white" stroke-width="2.1221" stroke-miterlimit="10"/>
<path opacity="0.5" d="M677.41 -48.15L612.93 16.33" stroke="white" stroke-width="2.1221" stroke-miterlimit="10"/>
<path opacity="0.5" d="M673.22 -52.34L608.74 12.14" stroke="white" stroke-width="2.1221" stroke-miterlimit="10"/>
<path opacity="0.5" d="M669.03 -56.52L604.56 7.95" stroke="white" stroke-width="2.1221" stroke-miterlimit="10"/>
<path opacity="0.5" d="M664.85 -60.71L600.37 3.77001" stroke="white" stroke-width="2.1221" stroke-miterlimit="10"/>
<path opacity="0.5" d="M660.66 -64.9L596.18 -0.419991" stroke="white" stroke-width="2.1221" stroke-miterlimit="10"/>
</g>
<g opacity="0.5">
<path opacity="0.5" d="M137.7 100.58L73.22 165.06" stroke="white" stroke-width="2.1221" stroke-miterlimit="10"/>
<path opacity="0.5" d="M133.51 96.39L69.03 160.87" stroke="white" stroke-width="2.1221" stroke-miterlimit="10"/>
<path opacity="0.5" d="M129.32 92.2L64.84 156.68" stroke="white" stroke-width="2.1221" stroke-miterlimit="10"/>
<path opacity="0.5" d="M125.13 88.01L60.65 152.49" stroke="white" stroke-width="2.1221" stroke-miterlimit="10"/>
<path opacity="0.5" d="M120.94 83.82L56.46 148.3" stroke="white" stroke-width="2.1221" stroke-miterlimit="10"/>
<path opacity="0.5" d="M116.75 79.63L52.27 144.11" stroke="white" stroke-width="2.1221" stroke-miterlimit="10"/>
<path opacity="0.5" d="M112.56 75.44L48.08 139.92" stroke="white" stroke-width="2.1221" stroke-miterlimit="10"/>
<path opacity="0.5" d="M108.37 71.25L43.89 135.73" stroke="white" stroke-width="2.1221" stroke-miterlimit="10"/>
<path opacity="0.5" d="M104.18 67.06L39.7 131.54" stroke="white" stroke-width="2.1221" stroke-miterlimit="10"/>
<path opacity="0.5" d="M99.99 62.87L35.51 127.35" stroke="white" stroke-width="2.1221" stroke-miterlimit="10"/>
<path opacity="0.5" d="M95.8 58.68L31.32 123.16" stroke="white" stroke-width="2.1221" stroke-miterlimit="10"/>
<path opacity="0.5" d="M91.61 54.49L27.13 118.97" stroke="white" stroke-width="2.1221" stroke-miterlimit="10"/>
<path opacity="0.5" d="M87.42 50.3L22.95 114.78" stroke="white" stroke-width="2.1221" stroke-miterlimit="10"/>
<path opacity="0.5" d="M83.24 46.12L18.76 110.59" stroke="white" stroke-width="2.1221" stroke-miterlimit="10"/>
<path opacity="0.5" d="M79.05 41.93L14.57 106.4" stroke="white" stroke-width="2.1221" stroke-miterlimit="10"/>
<path opacity="0.5" d="M74.86 37.74L10.38 102.22" stroke="white" stroke-width="2.1221" stroke-miterlimit="10"/>
</g>
<g opacity="0.49">
<g opacity="0.49">
<path opacity="0.49" d="M522.86 19.83V26.97" stroke="white" stroke-width="2" stroke-miterlimit="10" stroke-linecap="round" stroke-linejoin="round"/>
<path opacity="0.49" d="M526.43 23.4H519.3" stroke="white" stroke-width="2" stroke-miterlimit="10" stroke-linecap="round" stroke-linejoin="round"/>
</g>
<g opacity="0.49">
<path opacity="0.49" d="M692.9 98.36V105.49" stroke="white" stroke-width="2" stroke-miterlimit="10" stroke-linecap="round" stroke-linejoin="round"/>
</g>
<g opacity="0.49">
<path opacity="0.49" d="M189.61 33.76V40.89" stroke="white" stroke-width="2" stroke-miterlimit="10" stroke-linecap="round" stroke-linejoin="round"/>
<path opacity="0.49" d="M193.18 37.32H186.05" stroke="white" stroke-width="2" stroke-miterlimit="10" stroke-linecap="round" stroke-linejoin="round"/>
</g>
</g>
</g>
<defs>
<clipPath id="clip0_153_2">
<rect width="750" height="100" fill="white"/>
</clipPath>
</defs>
</svg>
